<svg width="196" height="64" viewBox="0 0 196 64" fill="none" xmlns="http://www.w3.org/2000/svg">
<g clip-path="url(#clip0_1_153)">
<path d="M100.568 37.6342L100.799 41.4311C99.5962 41.7141 98.3622 41.8469 97.126 41.8272C93.3148 41.8272 91.2828 40.2303 91.2828 36.3395C91.2828 33.2901 91.3411 29.9392 91.3698 28.1054H89.3952C89.3952 27.2779 89.3952 26.0918 89.3952 25.2284C92.3604 24.7391 93.2935 23.071 93.7346 19.8492H96.9953C96.8796 21.1799 96.7786 23.1069 96.7786 24.4156H100.242V28.1054H96.7284V34.7506C96.7284 37.3247 97.2484 38.0296 99.0348 38.0296C99.5711 38.0288 100.098 37.8931 100.568 37.6342ZM118.762 33.5131C118.762 32.0746 118.762 30.1476 118.762 30.1476C118.762 25.8328 116.86 23.8838 111.473 23.8838C108.45 23.8838 106.295 24.4083 102.918 24.4083C103.106 27.4437 103.113 31.1907 103.099 33.5058C103.084 35.8216 103.019 40.0938 102.918 41.4604H108.703C108.573 40.0938 108.45 36.1598 108.472 33.5058C108.472 31.9961 108.472 30.1688 108.551 27.7166C109.229 27.4884 109.94 27.3718 110.656 27.3718C112.68 27.3718 113.331 28.3137 113.331 30.9171C113.331 30.9171 113.331 32.5499 113.331 33.5058C113.331 35.8648 113.252 40.0938 113.15 41.4604H118.935C118.863 40.0938 118.748 36.1598 118.762 33.5058V33.5131ZM80.0603 34.2687C79.4378 34.2687 78.3823 34.2687 77.8475 34.2254V34.3406C77.8475 36.7855 79.4599 38.3318 82.4464 38.3318C84.0684 38.3244 85.6608 37.8983 87.0675 37.0951L87.277 40.9132C85.4536 41.5778 83.5196 41.8932 81.5783 41.8411C75.5116 41.8411 72.5974 39.7768 72.0914 34.1822C71.3678 34.1822 70.3558 34.1102 68.9308 34.1028C68.8947 35.088 68.8584 35.9588 68.8584 36.685C68.8231 38.2804 68.9079 39.8767 69.1115 41.4604C65.7857 41.4604 63.2107 41.8272 60.593 41.8272C55.6401 41.8272 53.8972 39.7843 53.8972 36.3035C53.8972 32.8228 56.6956 31.1041 62.7409 31.1041H63.5729V30.7447C63.5729 28.357 62.8493 27.3571 60.4049 27.3571C58.7454 27.4063 57.119 27.8369 55.6541 28.6159L55.452 24.8044C57.4605 24.1288 59.5729 23.8119 61.6928 23.8691C66.9931 23.8691 68.9891 25.6025 68.9891 30.3852C68.9891 30.6508 68.9891 30.9097 68.9891 31.1613C70.2835 31.1613 71.2306 31.1613 72.098 31.2406C72.6335 26.5231 74.9908 23.8838 80.9424 23.8838C85.8452 23.8838 88.1008 25.9333 88.1008 29.0186C88.1303 32.6072 85.3894 34.2687 80.0603 34.2687ZM63.522 38.3097C63.435 37.1523 63.4711 35.4768 63.4859 34.0456C63.283 34.0456 63.0013 34.0456 62.763 34.0456C60.2464 34.0456 59.241 34.8871 59.241 36.368C59.241 37.8499 60.0295 38.5261 61.8735 38.5261C62.4296 38.5203 62.9828 38.4477 63.522 38.3097ZM79.4311 31.3631C81.759 31.3631 82.8727 30.5862 82.8727 28.9181C82.8727 27.7312 82.0628 27.0843 80.8119 27.0843C78.6066 27.0843 77.8402 28.8389 77.8402 31.2332V31.3198C78.2591 31.3557 78.8522 31.3631 79.409 31.3631H79.4311ZM136.218 41.4311C132.892 41.4311 130.318 41.7978 127.7 41.7978C122.746 41.7978 121.003 39.7556 121.003 36.275C121.003 32.7942 123.795 31.0755 129.848 31.0755H130.679V30.7161C130.679 28.3284 129.956 27.3285 127.512 27.3285C125.851 27.3777 124.226 27.8083 122.761 28.5873L122.558 24.775C124.577 24.0906 126.703 23.7686 128.835 23.8258C134.143 23.8258 136.131 25.5592 136.131 30.342C136.131 32.902 135.965 35.0954 135.965 36.6418C135.913 38.2511 135.983 39.8612 136.175 41.4604L136.218 41.4311ZM130.635 38.2812C130.549 37.1236 130.585 35.4482 130.599 34.0171C130.397 34.0171 130.115 34.0171 129.877 34.0171C127.36 34.0171 126.355 34.8584 126.355 36.3395C126.355 37.8212 127.143 38.4968 128.987 38.4968C129.535 38.4991 130.081 38.4367 130.614 38.3097L130.635 38.2812Z" fill="#4A3A54"/>
<path d="M138.044 28.7416C137.85 28.5179 137.7 28.2597 137.603 27.9794C137.501 27.6831 137.449 27.3721 137.451 27.0588C137.45 26.7449 137.504 26.4339 137.611 26.1382C137.713 25.8727 137.865 25.6284 138.059 25.4194C138.262 25.2015 138.508 25.0276 138.782 24.9088C139.39 24.6557 140.076 24.6557 140.684 24.9088C140.959 25.0262 141.205 25.2 141.407 25.4194C141.6 25.6292 141.752 25.8727 141.856 26.1382C141.962 26.4331 142.016 26.7449 142.015 27.0588C142.016 27.3728 141.962 27.6838 141.856 27.9794C141.757 28.2604 141.605 28.5186 141.407 28.7416C141.204 28.9595 140.958 29.1333 140.684 29.2522C140.076 29.5052 139.39 29.5052 138.782 29.2522C138.502 29.137 138.251 28.9624 138.044 28.7416ZM138.926 28.9001C139.174 29.0123 139.443 29.0688 139.715 29.0651C139.987 29.071 140.256 29.0145 140.503 28.9001C140.725 28.7959 140.922 28.6462 141.082 28.4614C141.242 28.2729 141.365 28.0557 141.443 27.821C141.525 27.5775 141.566 27.3229 141.566 27.0662C141.563 26.8212 141.521 26.5791 141.443 26.3473C141.364 26.1148 141.242 25.8998 141.082 25.7142C140.922 25.5287 140.726 25.379 140.503 25.2756C140.003 25.0592 139.434 25.0592 138.934 25.2756C138.712 25.379 138.515 25.5287 138.356 25.7142C138.196 25.8998 138.072 26.1148 137.994 26.3473C137.915 26.5791 137.874 26.8212 137.871 27.0662C137.864 27.4476 137.957 27.8239 138.139 28.1592C138.319 28.4805 138.594 28.7394 138.926 28.9001ZM138.876 25.6204H139.288H139.65C139.956 25.5917 140.262 25.6761 140.51 25.858C140.681 26.0121 140.776 26.2329 140.77 26.4617C140.773 26.5718 140.756 26.6818 140.72 26.786C140.687 26.8769 140.638 26.9627 140.576 27.0376C140.517 27.1087 140.445 27.1696 140.366 27.2173C140.29 27.2642 140.207 27.2987 140.12 27.3178L140.843 28.4753C140.805 28.4988 140.763 28.5157 140.72 28.5259H140.604C140.537 28.5259 140.47 28.5113 140.409 28.4827C140.341 28.4474 140.286 28.3917 140.25 28.325L139.671 27.3684H139.317V28.49H138.89L138.876 25.6204ZM139.736 26.9363C140.127 26.9363 140.322 26.7713 140.322 26.4331C140.331 26.3026 140.274 26.1756 140.171 26.095C140.02 26.0062 139.846 25.9658 139.671 25.9805H139.462H139.295V26.9151L139.736 26.9363Z" fill="#4A3A54"/>
</g>
<defs>
<clipPath id="clip0_1_153">
<rect width="89.3333" height="24" fill="white" transform="translate(53.3333 20)"/>
</clipPath>
</defs>
</svg>
