<svg width="196" height="64" viewBox="0 0 196 64" fill="none" xmlns="http://www.w3.org/2000/svg">
<g clip-path="url(#clip0_1_112)">
<path d="M113.97 39.2044C113.97 41.5172 113.168 42.7343 112.277 42.7343C111.742 42.7343 111.326 42.2127 111.326 41.1172C111.326 39.3783 112.574 38.6133 113.97 38.0395V39.2044ZM116.347 40.439C116.318 41.917 116.169 42.3517 115.842 42.3517C115.605 42.3517 115.471 42.0909 115.471 41.4997V35.8138C115.471 34.2836 114.713 33.2402 112.767 33.2402C111.251 33.2402 110.137 34.3357 110.137 35.7268C110.137 36.544 110.494 36.9613 110.984 36.9613C111.474 36.9613 111.861 36.5093 111.861 35.7789C111.861 35.1878 111.682 34.7009 111.133 34.6314C111.504 34.1096 112.009 33.901 112.618 33.901C113.539 33.901 114 34.4053 114 35.5703V37.2396C112.499 37.9003 109.751 38.8567 109.751 41.1867C109.751 42.543 110.538 43.482 111.875 43.482C113.094 43.482 113.629 42.8038 114.045 41.8997H114.074C114.178 42.9952 114.654 43.482 115.486 43.482C116.57 43.482 116.927 42.5778 116.927 40.4216L116.347 40.439Z" fill="#4A3A54"/>
<path d="M104.671 37.5351C104.671 34.9269 105.324 33.901 106.334 33.901C107.256 33.901 107.776 34.9269 107.776 37.5351H104.671ZM109.484 38.3003C109.484 35.3616 108.266 33.2402 106.334 33.2402C104.359 33.2402 102.962 35.3616 102.962 38.3525C102.962 40.9085 104.388 43.482 106.557 43.482C108.504 43.482 109.365 41.7084 109.514 39.8826L108.949 39.7608C108.771 41.152 108.236 42.7169 106.721 42.7169C105.547 42.7169 104.671 41.1693 104.671 38.3003H109.484Z" fill="#4A3A54"/>
<path d="M79.4596 37.5351C79.4596 34.9269 80.1281 33.901 81.1087 33.901C82.0298 33.901 82.5498 34.9269 82.5498 37.5351H79.4596ZM84.2731 38.3003C84.2731 35.3616 83.0549 33.2402 81.1235 33.2402C79.1476 33.2402 77.7659 35.3616 77.7659 38.3525C77.7659 40.9085 79.1921 43.482 81.3613 43.482C83.3075 43.482 84.1691 41.7084 84.3326 39.8826L83.768 39.7608C83.5897 41.152 83.0549 42.7169 81.5395 42.7169C80.3807 42.7169 79.4893 41.1693 79.4893 38.3003H84.2731Z" fill="#4A3A54"/>
<path d="M50.6037 29.2257H54.7935V29.8864C53.6643 29.9734 53.5603 30.2168 53.5603 31.2775V40.0584C53.5603 41.9537 54.4815 42.9274 55.7741 42.9274C57.2598 42.9274 58.1661 41.832 58.1661 40.0063V31.4688C58.1661 30.4081 57.8838 29.956 56.8141 29.8864V29.2257H60.157V29.8864C59.1021 29.9734 58.8199 30.4081 58.8199 31.4688V39.5716C58.8199 42.0928 57.869 43.5882 55.4472 43.5882C53.0106 43.5882 51.8518 42.0406 51.8518 39.4845V31.2775C51.8518 30.2168 51.7478 29.9734 50.6037 29.8864V29.2257Z" fill="#4A3A54"/>
<path d="M59.9077 43.2559V42.5952C60.7397 42.5604 61.022 42.1952 61.022 41.5692V35.1877C61.022 34.3009 60.814 34.1618 59.878 34.127V33.4837L62.4185 33.3446V35.3269H62.4482C62.9237 34.1792 63.5922 33.2402 64.7808 33.2402C66.222 33.2402 66.9054 34.3357 66.9054 36.1441V41.5692C66.9054 42.2647 67.1431 42.543 67.99 42.5952V43.2559H65.4048V35.9876C65.4048 34.6487 64.974 34.1965 64.3797 34.1965C63.4585 34.1965 62.5077 35.6224 62.5077 37.6221V41.5866C62.5077 42.1952 62.79 42.5604 63.622 42.6125V43.2732H59.9077V43.2559Z" fill="#4A3A54"/>
<path d="M144.623 39.1853C144.623 41.5152 143.82 42.7325 142.929 42.7325C142.379 42.7325 141.963 42.2109 141.963 41.1153C141.963 39.3592 143.226 38.594 144.638 38.0029V39.1853H144.623ZM147 40.4545C146.97 41.9326 146.836 42.4021 146.495 42.4021C146.257 42.4021 146.123 42.1238 146.123 41.5327V35.7945C146.123 34.2469 145.38 33.2211 143.404 33.2211C141.874 33.2211 140.76 34.3166 140.76 35.7249C140.76 36.5597 141.102 36.9595 141.592 36.9595C142.082 36.9595 142.454 36.5075 142.454 35.7598C142.454 35.1685 142.275 34.6643 141.726 34.6121C142.097 34.0905 142.602 33.8644 143.211 33.8644C144.147 33.8644 144.608 34.3686 144.608 35.551V37.2378C143.092 37.8811 140.329 38.8549 140.329 41.2022C140.329 42.5585 141.116 43.515 142.468 43.515C143.702 43.515 144.222 42.8368 144.652 41.9152H144.682C144.786 43.0281 145.262 43.515 146.108 43.515C147.178 43.515 147.535 42.5934 147.535 40.4372L147 40.4545Z" fill="#4A3A54"/>
<path d="M139.763 39.8634C139.6 41.7935 138.842 43.515 136.911 43.515C135.143 43.515 133.509 41.6718 133.509 38.6462C133.509 36.0901 135.024 33.2211 137.134 33.2211C138.619 33.2211 139.555 34.2991 139.555 35.8989C139.555 36.8726 139.303 37.4116 138.664 37.4116C138.174 37.4116 137.847 36.9248 137.847 36.1945C137.847 35.3251 138.114 34.9773 138.56 34.9773C138.679 34.9773 138.753 35.0468 138.827 35.0643L138.857 35.0294C138.59 34.2817 138.04 33.8992 137.386 33.8992C136.079 33.8992 135.202 35.4293 135.202 38.3332C135.202 41.7935 136.109 42.7673 137.134 42.7673C138.545 42.7673 139.006 41.2544 139.199 39.8112L139.763 39.8634Z" fill="#4A3A54"/>
<path d="M155.013 37.5507C155.013 34.9077 155.681 33.8644 156.677 33.8644C157.598 33.8644 158.133 34.9077 158.133 37.5507H155.013ZM159.827 38.3332C159.827 35.3598 158.608 33.2211 156.662 33.2211C154.686 33.2211 153.304 35.3598 153.304 38.4027C153.304 40.9588 154.731 43.5322 156.9 43.5322C158.861 43.5322 159.707 41.7587 159.856 39.9328L159.306 39.8111C159.128 41.2022 158.593 42.7497 157.064 42.7497C155.889 42.7497 154.998 41.2022 154.998 38.3505H159.827V38.3332Z" fill="#4A3A54"/>
<path d="M147.759 43.2714V42.6281C148.502 42.5933 148.769 42.2107 148.769 41.6021V36.0206C148.769 34.6294 148.561 34.1774 147.685 34.1252V33.4645L150.091 33.3428V35.7076H150.121C150.344 34.6469 150.968 33.2211 152.008 33.2211C152.647 33.2211 153.285 33.847 153.285 34.9946C153.285 35.8814 152.914 36.3336 152.468 36.3336C152.082 36.3336 151.681 36.0553 151.681 35.1163C151.681 34.6294 151.919 34.1078 152.424 34.1078C152.335 33.9514 152.156 33.8644 151.978 33.8644C150.804 33.8817 150.27 36.89 150.27 38.6809V41.6021C150.27 42.2107 150.552 42.5933 151.726 42.6281V43.2714H147.759Z" fill="#4A3A54"/>
<path d="M160.445 31.0313C161.069 31.0313 161.56 31.6053 161.56 32.3358C161.56 33.0662 161.069 33.6403 160.445 33.6403C159.821 33.6403 159.331 33.0662 159.331 32.3358C159.331 31.6227 159.835 31.0313 160.445 31.0313ZM160.445 30.8052C159.717 30.8052 159.138 31.4835 159.138 32.3358C159.138 33.1881 159.717 33.8663 160.445 33.8663C161.159 33.8663 161.752 33.1881 161.752 32.3358C161.752 31.4835 161.173 30.8052 160.445 30.8052ZM160.207 32.4401H160.445C160.52 32.4401 160.653 32.4401 160.667 32.6314C160.682 32.875 160.667 33.1011 160.728 33.2228H160.965C160.936 33.1184 160.905 32.8401 160.905 32.7706C160.89 32.4228 160.831 32.3531 160.638 32.3184C160.831 32.2662 160.965 32.1097 160.965 31.9009C160.965 31.6922 160.831 31.4661 160.549 31.4661H159.955V33.2228H160.192V32.4401H160.207ZM160.207 31.6575H160.52C160.682 31.6575 160.743 31.7966 160.743 31.9183C160.743 32.0748 160.667 32.1966 160.52 32.1966H160.207V31.6575Z" fill="#4A3A54"/>
<path d="M74.8261 29.7258V33.4816H76.9359V34.2468H74.8261V41.4455C74.8261 42.3496 75.0936 42.7148 75.569 42.7148C76.1484 42.7148 76.5793 42.28 76.5793 40.1065V39.5327H77.1439V40.489C77.1439 42.5582 76.4901 43.4624 75.1828 43.4624C74.0239 43.4624 73.3256 42.6104 73.3256 40.9759V34.2293H72.241V33.6556C73.5039 33.0471 74.1576 32.3514 74.2616 29.7433H74.8261V29.7258Z" fill="#4A3A54"/>
<path d="M93.0835 43.2578V42.597C94.1384 42.5101 94.3017 42.2667 94.3017 41.206V31.26C94.3017 30.1994 94.1235 29.956 93.0835 29.8864V29.2257H97.303V29.8864C96.2332 29.9734 96.0104 30.2168 96.0104 31.26V35.4854H99.7692V31.26C99.7692 30.1994 99.5612 29.956 98.4766 29.8864V29.2257H102.696V29.8864C101.656 29.9734 101.478 30.2168 101.478 31.26V41.206C101.478 42.2667 101.656 42.5101 102.696 42.597V43.2578H98.4766V42.597C99.5612 42.5101 99.7692 42.2667 99.7692 41.206V36.2678H96.0104V41.206C96.0104 42.2667 96.2184 42.5101 97.303 42.597V43.2578H93.0835Z" fill="#4A3A54"/>
<path d="M86.8585 38.4207C86.8585 35.2735 87.4825 34.0042 88.4481 34.0042C89.503 34.0042 90.1568 35.517 90.1568 38.4207C90.1568 41.9332 89.2356 42.8373 88.3145 42.8373C87.423 42.8373 86.8585 41.568 86.8585 38.4207ZM89.0128 29.8659C89.919 29.9006 90.1419 30.0397 90.1419 30.9266V34.5954L90.1121 34.6127C89.7705 33.813 89.1761 33.2565 88.359 33.2565C86.5316 33.2565 85.1499 35.4474 85.1499 38.4207C85.1499 41.6202 86.6059 43.5155 88.1659 43.5155C89.2208 43.5155 89.8001 42.7851 90.1865 41.8288H90.2161V43.272L92.6527 43.1503V42.4895C91.9545 42.507 91.6425 42.1765 91.6425 41.0811V29.1007L89.0128 29.2224V29.8659Z" fill="#4A3A54"/>
<path d="M116.678 43.2551V42.5944C117.51 42.5596 117.792 42.1945 117.792 41.5685V30.9619C117.792 30.2663 117.495 29.9012 116.633 29.8664V29.2057L119.278 29.084V41.5685C119.278 42.177 119.56 42.5422 120.392 42.5944V43.2551H116.678Z" fill="#4A3A54"/>
<path d="M122.932 29.7258V33.4816H125.042V34.2468H122.932V41.4455C122.932 42.3496 123.199 42.7148 123.66 42.7148C124.239 42.7148 124.685 42.28 124.685 40.1065V39.5327H125.25V40.489C125.25 42.5582 124.596 43.4624 123.289 43.4624C122.13 43.4624 121.431 42.6104 121.431 40.9759V34.2293H120.347V33.6556C121.595 33.0471 122.263 32.3514 122.367 29.7433H122.932V29.7258Z" fill="#4A3A54"/>
<path d="M125.176 43.2546V42.5938C126.008 42.559 126.291 42.1939 126.291 41.5679V30.9264C126.291 30.0571 126.083 29.9006 125.132 29.8659V29.2224L127.791 29.1007V35.0996H127.821C128.177 34.1955 128.831 33.2565 130.005 33.2565C131.357 33.2565 132.189 34.3519 132.189 36.1603V41.5853C132.189 42.1939 132.486 42.559 133.273 42.6112V43.2719H130.703V36.1081C130.703 34.6822 130.272 34.2128 129.633 34.2128C128.757 34.2128 127.806 35.5517 127.806 37.5166V41.6027C127.806 42.2112 128.088 42.5764 128.92 42.6286V43.2894H125.176V43.2546Z" fill="#4A3A54"/>
<path d="M68.3948 43.2568V42.5962C69.2268 42.5613 69.5091 42.1962 69.5091 41.5702V35.0845C69.5091 34.2151 69.3011 34.0587 68.3948 34.0238V33.363L71.0096 33.2588V41.5877C71.0096 42.2136 71.2919 42.5787 72.1238 42.6135V43.2743H68.3948V43.2568ZM71.0096 30.3376C71.0096 31.1201 70.6382 31.6417 70.1183 31.6417C69.5983 31.6417 69.2268 31.1201 69.2268 30.3376C69.2268 29.5552 69.5983 29.0334 70.1183 29.0334C70.6531 29.0334 71.0096 29.5552 71.0096 30.3376Z" fill="#4A3A54"/>
<path d="M35.4237 43.2509H35.4534C35.4682 43.2509 35.4682 43.2509 35.4831 43.2509C35.4979 43.2509 35.4979 43.2509 35.5128 43.2509C35.5277 43.2509 35.5277 43.2509 35.5425 43.2509C35.5574 43.2509 35.5722 43.2509 35.5722 43.2509C35.5871 43.2509 35.6019 43.2509 35.6019 43.2509C35.6168 43.2509 35.6168 43.2509 35.6317 43.2509C35.6465 43.2509 35.6614 43.2509 35.6762 43.2509C35.6911 43.2509 35.6911 43.2509 35.7059 43.2509C35.7208 43.2509 35.7357 43.2509 35.7505 43.2336C35.7654 43.2336 35.7654 43.2336 35.7802 43.2336C35.7951 43.2336 35.8099 43.2336 35.8248 43.2162C35.8397 43.2162 35.8397 43.2162 35.8545 43.1987C35.8694 43.1987 35.8842 43.1987 35.914 43.1814C35.9288 43.1814 35.9288 43.1814 35.9437 43.164C35.9585 43.164 35.9734 43.1466 36.0031 43.1466C36.0031 43.1466 36.018 43.1292 36.0328 43.1292C36.0477 43.1292 36.0774 43.1118 36.0922 43.1118C36.1071 43.1118 36.1071 43.0945 36.122 43.0945C36.1368 43.0945 36.1665 43.077 36.1814 43.0597C36.1962 43.0597 36.1962 43.0597 36.2111 43.0423C36.226 43.0423 36.2557 43.0248 36.2705 43.0075C36.2854 43.0075 36.2854 42.9901 36.3002 42.9901C36.3151 42.9728 36.3448 42.9728 36.3597 42.9553C36.3745 42.9553 36.3745 42.9379 36.3894 42.9379C36.4042 42.9206 36.434 42.9206 36.4488 42.9031C36.4637 42.9031 36.4637 42.8858 36.4785 42.8858C36.4934 42.8684 36.5231 42.851 36.5528 42.8336C36.5677 42.8336 36.5677 42.8162 36.5825 42.8162C36.6122 42.7989 36.6271 42.7815 36.6568 42.764C36.6717 42.764 36.6717 42.7467 36.6865 42.7467C36.7014 42.7293 36.7311 42.7118 36.7608 42.6771C36.7757 42.6598 36.7757 42.6598 36.7905 42.6423C36.8202 42.625 36.8351 42.5902 36.8648 42.5728C36.8797 42.5554 36.8797 42.5554 36.8945 42.5381C36.9242 42.5206 36.9391 42.4859 36.9688 42.4685C36.9837 42.451 36.9985 42.4337 36.9985 42.4163C37.0282 42.3989 37.0431 42.3642 37.058 42.3468C37.0728 42.3293 37.0877 42.312 37.1025 42.2946C37.1174 42.2598 37.1471 42.2424 37.162 42.2076C37.1768 42.1902 37.1917 42.1729 37.1917 42.1555C37.2214 42.1207 37.2362 42.1034 37.2511 42.0685C37.266 42.0512 37.2808 42.0338 37.2808 42.0163C37.2957 41.9816 37.3254 41.9468 37.3402 41.9294C37.3551 41.9121 37.37 41.8773 37.3848 41.8599C37.3997 41.8251 37.4145 41.7904 37.4442 41.7555C37.4591 41.7382 37.474 41.7034 37.4888 41.686C37.5037 41.6513 37.5334 41.6165 37.5482 41.5816C37.5631 41.5643 37.578 41.5296 37.578 41.4947C37.5928 41.4599 37.6225 41.4252 37.6374 41.3904C37.6523 41.3557 37.6671 41.3383 37.6671 41.3035C37.682 41.2686 37.6968 41.2166 37.7265 41.1818C37.7414 41.1469 37.7563 41.1122 37.7711 41.0774C37.786 41.0427 37.8008 41.0078 37.8157 40.9557C37.8305 40.921 37.8454 40.8861 37.8603 40.8339C37.8454 40.7992 37.8603 40.747 37.8751 40.7122C37.89 40.6775 37.9048 40.6427 37.9197 40.5906C37.9345 40.5384 37.9494 40.5036 37.9643 40.4514C37.9791 40.4167 37.994 40.3645 37.994 40.3297C38.0088 40.2776 38.0237 40.2428 38.0385 40.1906C38.0534 40.1384 38.0683 40.0689 38.0831 40.0167C38.098 39.982 38.098 39.9472 38.1128 39.9125C38.1425 39.8081 38.1574 39.7212 38.1871 39.6168C38.5288 38.1563 38.618 35.2002 38.618 33.2181V20.6465L33.3882 23.9328V36.9043C33.3882 41.8426 34.1459 43.0248 35.0819 43.2162H35.0671L35.4237 43.2509Z" fill="#4A3A54"/>
<path d="M36.7405 44.5764C38.8205 44.2461 40.0091 41.5683 40.2914 40.2468C40.752 38.4211 40.8411 36.1606 40.8411 33.5872V19.2595L38.6274 20.6506L39.7862 20.9462V32.4397C39.7862 35.413 39.7268 38.0037 39.3108 39.7252C38.7314 42.1595 37.6765 43.1332 36.9485 43.4635L35.0765 43.2201H35.0616C35.2548 43.9157 35.7153 44.4373 36.265 44.5417L36.7405 44.5764Z" fill="#4A3A54"/>
<path d="M36.2686 44.5611C36.4469 45.135 36.9372 45.6566 37.4423 45.7957L37.9178 45.8479C40.0721 45.8306 41.4984 43.3614 42.0035 42.0573C42.7315 40.1446 43.0881 37.4147 43.0881 33.5024V17.8531L40.8446 19.2616L42.0332 19.5746V32.9112C42.0332 36.2498 41.9144 39.0666 41.2309 41.188C40.6218 43.0137 39.5372 44.4221 38.2001 44.8046L36.744 44.5786L36.2686 44.5611Z" fill="#4A3A54"/>
<path d="M43.0898 17.8518L44.3081 18.1648V32.9097C44.3081 37.4307 43.9069 40.5257 43.0452 42.6122C42.243 44.5597 40.891 45.829 39.5984 46.0899L37.9196 45.8464L37.4441 45.7943C37.8453 46.5941 38.5584 47.0114 39.3161 47.0462C40.3561 47.0984 41.2178 46.5593 42.0201 45.9333C44.5755 43.8642 45.3778 39.2564 45.3778 33.0314V16.4086L43.0898 17.8518Z" fill="#4A3A54"/>
</g>
<defs>
<clipPath id="clip0_1_112">
<rect width="129.231" height="32" fill="white" transform="translate(33.3846 16)"/>
</clipPath>
</defs>
</svg>
